<svg width="278" height="78" viewBox="0 0 278 78" fill="none" xmlns="http://www.w3.org/2000/svg">
<g filter="url(#filter0_d_16709_488)">
<path d="M4.32031 69.0001H8.26918V64.6819H10.4567C13.7734 64.6819 15.9964 62.7288 15.9964 59.5967C15.9964 56.5001 13.8303 54.4546 10.5987 54.4546H4.32031V69.0001ZM8.26918 61.6137V57.608H9.66122C11.0462 57.608 11.8771 58.3467 11.8771 59.5967C11.8771 60.8396 11.0462 61.6137 9.66122 61.6137H8.26918Z" fill="white"/>
<path d="M17.4453 69.0001H21.3942V64.1989H22.7578L25.3146 69.0001H29.6044L26.6499 63.5739C28.1982 62.8282 29.1214 61.4149 29.1214 59.3978C29.1214 56.3012 26.9553 54.4546 23.7237 54.4546H17.4453V69.0001ZM21.3942 61.1308V57.608H22.7862C24.1712 57.608 25.0021 58.1478 25.0021 59.3978C25.0021 60.6407 24.1712 61.1308 22.7862 61.1308H21.3942Z" fill="white"/>
<path d="M34.5827 69.0001L35.4208 66.216H40.2219L41.06 69.0001H45.3213L40.5202 54.4546H35.1225L30.3213 69.0001H34.5827ZM36.3157 63.2614L37.7645 58.4603H37.8782L39.327 63.2614H36.3157Z" fill="white"/>
<path d="M59.6188 59.9093C59.3063 56.3013 56.6643 54.2559 52.9995 54.2559C49.079 54.2559 45.9824 56.8695 45.9824 61.7275C45.9824 66.5641 48.9938 69.199 52.9995 69.199C57.2609 69.199 59.4199 66.2445 59.6188 63.7729L55.6131 63.7445C55.4143 64.9874 54.5336 65.7615 53.0847 65.7615C51.16 65.7615 50.0449 64.3979 50.0449 61.7275C50.0449 59.199 51.1245 57.6934 53.1131 57.6934C54.633 57.6934 55.4995 58.5882 55.6131 59.9093H59.6188Z" fill="white"/>
<path d="M61.0127 57.6364H65.3877V69.0001H69.2798V57.6364H73.6548V54.4546H61.0127V57.6364Z" fill="white"/>
<path d="M79.0895 54.4546H75.1406V69.0001H79.0895V54.4546Z" fill="white"/>
<path d="M94.5407 59.9093C94.2282 56.3013 91.5861 54.2559 87.9214 54.2559C84.0009 54.2559 80.9043 56.8695 80.9043 61.7275C80.9043 66.5641 83.9157 69.199 87.9214 69.199C92.1827 69.199 94.3418 66.2445 94.5407 63.7729L90.535 63.7445C90.3361 64.9874 89.4555 65.7615 88.0066 65.7615C86.0819 65.7615 84.9668 64.3979 84.9668 61.7275C84.9668 59.199 86.0464 57.6934 88.035 57.6934C89.5549 57.6934 90.4214 58.5882 90.535 59.9093H94.5407Z" fill="white"/>
<path d="M104.94 54.4546V63.4319C104.94 64.7884 103.967 65.7614 102.61 65.7614C101.254 65.7614 100.281 64.7884 100.281 63.4319V54.4546H96.332V63.7728C96.332 67.0967 98.8462 69.1705 102.61 69.1705C106.346 69.1705 108.889 67.0967 108.889 63.7728V54.4546H104.94Z" fill="white"/>
<path d="M110.766 54.4546V69.0001H114.629V60.5342H114.743L117.982 68.8864H120.311L123.55 60.591H123.663V69.0001H127.527V54.4546H122.612L119.232 62.6933H119.061L115.68 54.4546H110.766Z" fill="white"/>
<path d="M137.161 69.0001L137.999 66.216H142.8L143.638 69.0001H147.9L143.099 54.4546H137.701L132.9 69.0001H137.161ZM138.894 63.2614L140.343 58.4603H140.457L141.906 63.2614H138.894Z" fill="white"/>
<path d="M149.301 69.0001H153.25V64.1989H154.613L157.17 69.0001H161.46L158.505 63.5739C160.054 62.8282 160.977 61.4149 160.977 59.3978C160.977 56.3012 158.811 54.4546 155.579 54.4546H149.301V69.0001ZM153.25 61.1308V57.608H154.642C156.027 57.608 156.858 58.1478 156.858 59.3978C156.858 60.6407 156.027 61.1308 154.642 61.1308H153.25Z" fill="white"/>
<path d="M162.262 57.6364H166.637V69.0001H170.529V57.6364H174.904V54.4546H162.262V57.6364Z" fill="white"/>
<path d="M189.821 59.2559H193.812C193.507 56.3368 190.858 54.2559 187.42 54.2559C183.5 54.2559 180.318 56.9547 180.318 61.7559C180.318 66.3581 183.202 69.199 187.449 69.199C191.256 69.199 193.983 66.8695 193.983 62.8922V60.8752H187.534V63.6877H190.176C190.141 64.9519 189.246 65.7615 187.477 65.7615C185.432 65.7615 184.381 64.2559 184.381 61.699C184.381 59.1777 185.517 57.6934 187.506 57.6934C188.741 57.6934 189.58 58.2615 189.821 59.2559Z" fill="white"/>
<path d="M199.153 69.0001L199.991 66.216H204.793L205.631 69.0001H209.892L205.091 54.4546H199.693L194.892 69.0001H199.153ZM200.886 63.2614L202.335 58.4603H202.449L203.898 63.2614H200.886Z" fill="white"/>
<path d="M211.293 69.0001H221.123V65.8183H215.242V54.4546H211.293V69.0001Z" fill="white"/>
<path d="M222.719 69.0001H232.548V65.8183H226.668V54.4546H222.719V69.0001Z" fill="white"/>
<path d="M234.145 69.0001H244.599V65.8183H238.093V63.3183H244.088V60.1364H238.093V57.6364H244.627V54.4546H234.145V69.0001Z" fill="white"/>
<path d="M246.586 69.0001H250.535V64.1989H251.898L254.455 69.0001H258.745L255.79 63.5739C257.339 62.8282 258.262 61.4149 258.262 59.3978C258.262 56.3012 256.096 54.4546 252.864 54.4546H246.586V69.0001ZM250.535 61.1308V57.608H251.927C253.312 57.608 254.143 58.1478 254.143 59.3978C254.143 60.6407 253.312 61.1308 251.927 61.1308H250.535Z" fill="white"/>
<path d="M258.665 54.4546L264.006 64.4262V69.0001H267.926V64.4262L273.267 54.4546H268.864L266.023 60.3637H265.909L263.069 54.4546H258.665Z" fill="white"/>
<path d="M122 2C122 0.895431 122.895 0 124 0H152C153.105 0 154 0.895431 154 2V30C154 31.1046 153.105 32 152 32H124C122.895 32 122 31.1046 122 30V2Z" fill="#0278FE"/>
<path d="M154 6H122V8H154V6Z" fill="#2A2C2F"/>
<path d="M135 6H133V32H135V6Z" fill="#2A2C2F"/>
</g>
<defs>
<filter id="filter0_d_16709_488" x="0" y="0" width="278" height="78" filterUnits="userSpaceOnUse" color-interpolation-filters="sRGB">
<feFlood flood-opacity="0" result="BackgroundImageFix"/>
<feColorMatrix in="SourceAlpha" type="matrix" values="0 0 0 0 0 0 0 0 0 0 0 0 0 0 0 0 0 0 127 0" result="hardAlpha"/>
<feOffset dy="4"/>
<feGaussianBlur stdDeviation="2"/>
<feComposite in2="hardAlpha" operator="out"/>
<feColorMatrix type="matrix" values="0 0 0 0 0 0 0 0 0 0 0 0 0 0 0 0 0 0 0.25 0"/>
<feBlend mode="normal" in2="BackgroundImageFix" result="effect1_dropShadow_16709_488"/>
<feBlend mode="normal" in="SourceGraphic" in2="effect1_dropShadow_16709_488" result="shape"/>
</filter>
</defs>
</svg>
